<?xml version="1.0" encoding="UTF-8"?>
<svg version="1.1" xmlns="http://www.w3.org/2000/svg" width="512" height="512">
<path d="M0 0 C1.23375632 -0.00668677 1.23375632 -0.00668677 2.49243701 -0.01350862 C3.3958232 -0.01332426 4.2992094 -0.01313989 5.22997093 -0.01294994 C6.66986824 -0.01846498 6.66986824 -0.01846498 8.13885438 -0.02409142 C11.36994603 -0.03514407 14.60100553 -0.0389748 17.83211327 -0.04278088 C20.14304774 -0.04904437 22.45398121 -0.05569107 24.76491356 -0.0626936 C31.05439232 -0.08011474 37.34386347 -0.09065858 43.63336039 -0.09889913 C47.56205344 -0.10404732 51.49074412 -0.11012316 55.4194355 -0.11641026 C66.30032717 -0.13328183 77.18121591 -0.14791616 88.06211853 -0.155159 C90.88551523 -0.15706884 93.70891191 -0.15898918 96.53230858 -0.16094494 C97.23403637 -0.16142868 97.93576415 -0.16191242 98.65875642 -0.16241082 C110.02068959 -0.1707072 121.38251735 -0.19603721 132.74440451 -0.22852562 C144.41418503 -0.2616218 156.08390659 -0.27927753 167.75373399 -0.28280324 C174.30395445 -0.28515462 180.85400833 -0.29412681 187.40418434 -0.31926441 C193.56835989 -0.3425379 199.73225912 -0.34678104 205.89646721 -0.33650303 C208.15672919 -0.33600738 210.41700474 -0.34233642 212.67722511 -0.35605907 C215.76805411 -0.37377188 218.85789084 -0.36667419 221.94872093 -0.35352612 C222.8387228 -0.36449536 223.72872466 -0.37546461 224.64569628 -0.38676625 C233.50024079 -0.29611442 240.67502006 2.83894428 246.97029686 9.13422108 C253.93101819 18.1251528 254.26163382 27.15479153 254.16560936 38.16547108 C254.16136452 40.01295948 254.16136452 40.01295948 254.15703392 41.89777088 C254.14588888 45.8100221 254.12079435 49.7220397 254.09529686 53.63422108 C254.08412652 56.29567606 254.07613519 58.95712885 254.06795311 61.61859608 C254.0459681 68.12388337 254.01254703 74.62903552 253.97029686 81.13422108 C254.97983421 81.12311802 255.98937157 81.11201496 257.02950096 81.10057545 C266.56296997 80.99903211 276.09632865 80.92417558 285.6302166 80.87516022 C290.53124162 80.8491132 295.4318286 80.81380493 300.33260155 80.75702381 C305.06589602 80.70252895 309.79877028 80.67276374 314.53235435 80.65983486 C316.33443373 80.65062626 318.1364912 80.6326438 319.93839073 80.60557079 C336.89745625 80.36099687 336.89745625 80.36099687 342.48775291 84.37404346 C347.07506193 89.8204106 348.5670329 94.25911345 348.50374413 101.32928944 C348.5123597 102.11725407 348.52097527 102.9052187 348.52985191 103.71706104 C348.55242051 106.30307008 348.54579001 108.88798731 348.53670311 111.47406483 C348.54194291 113.28335864 348.5482207 115.09264972 348.55548668 116.90193653 C348.56587419 120.68709673 348.56135348 124.4718806 348.54671288 128.25702381 C348.52953124 133.09360234 348.55302095 137.92899214 348.58820248 142.76543808 C348.61022561 146.49998731 348.60872309 150.23425428 348.60043716 153.96884823 C348.59962026 155.75133601 348.60643351 157.53384505 348.62120819 159.31627178 C348.74361936 176.75661837 348.74361936 176.75661837 344.60678768 181.58401489 C339.42776255 186.48997384 333.534097 187.72465492 326.62654686 187.58832264 C325.83533943 187.58890675 325.044132 187.58949085 324.22894859 187.59009266 C321.64226774 187.5873303 319.05677362 187.55632807 316.47029686 187.52484608 C314.66569714 187.51737706 312.86108926 187.51168725 311.0564785 187.5076952 C306.32823998 187.49249079 301.60050023 187.45325434 296.8724575 187.40887928 C292.03925382 187.36781397 287.20596881 187.34966022 282.37264061 187.32953358 C272.90493934 187.28675441 263.43773779 187.21644765 253.97029686 187.13422108 C253.97029686 193.40422108 253.97029686 199.67422108 253.97029686 206.13422108 C256.94029686 206.13422108 259.91029686 206.13422108 262.97029686 206.13422108 C265.95326217 206.9632727 268.66631149 207.83326888 271.52889061 208.95062733 C272.31691566 209.24477024 273.10494072 209.53891315 273.91684532 209.84196949 C276.41924431 210.77986545 278.91335881 211.7378813 281.40779686 212.69672108 C283.04466663 213.31328455 284.68203412 213.92852837 286.31990623 214.5424242 C290.39340017 216.07359208 294.45618162 217.63128192 298.51686668 219.19604969 C301.01593336 220.1516721 303.52173228 221.08760046 306.02937889 222.02045155 C307.64647295 222.62980538 309.26350028 223.23933634 310.88045311 223.84906483 C311.6214576 224.12061893 312.36246208 224.39217304 313.12592125 224.67195606 C320.56912813 227.50551975 324.65143104 231.16599284 328.01717186 238.41937733 C330.5380804 245.59983404 329.27844503 251.07913315 326.16731834 257.78583241 C324.26840188 261.51124082 322.04182352 264.97337568 319.72029686 268.44672108 C319.23577049 269.17947254 318.75124413 269.91222401 318.25203514 270.66718006 C317.27848459 272.1387701 316.30278457 273.60894071 315.32478905 275.07758045 C314.11867019 276.90893323 312.94665738 278.7554084 311.79060936 280.61859608 C304.81655697 291.65384364 296.48399219 299.50579724 283.51717186 302.74750233 C280.64249184 303.18399515 277.878445 303.34059885 274.97029686 303.38422108 C273.95967186 303.41000233 272.94904686 303.43578358 271.90779686 303.46234608 C268.18533468 303.1521409 264.85293995 302.47216678 261.22420311 301.61371326 C259.46765404 301.20049824 259.46765404 301.20049824 257.67561913 300.77893543 C256.3364846 300.45980183 256.3364846 300.45980183 254.97029686 300.13422108 C254.96671433 301.44232652 254.96671433 301.44232652 254.96305943 302.77685833 C254.90386369 324.01898213 254.82828428 345.26099291 254.73458195 366.50299358 C254.68966078 376.77556678 254.65023761 387.04810558 254.62386131 397.32074451 C254.60085146 406.2767952 254.56742003 415.23273673 254.5215953 424.1887008 C254.4977034 428.92862278 254.4789482 433.66843693 254.47268295 438.4084177 C254.46661384 442.87523696 254.44654826 447.34178046 254.41602135 451.80849743 C254.40727032 453.44263573 254.40351242 455.07681011 254.4052887 456.71097088 C254.41407413 468.52921483 253.85572427 478.72142005 246.00935936 488.15375233 C241.14062649 492.88257908 234.79595793 496.25119444 227.94059372 496.26844215 C226.7068374 496.27512892 226.7068374 496.27512892 225.44815671 496.28195077 C224.54477052 496.28176641 223.64138432 496.28158205 222.71062279 496.2813921 C221.75069125 496.28506879 220.79075971 496.28874547 219.80173934 496.29253358 C216.57064769 496.30358622 213.33958819 496.30741696 210.10848045 496.31122303 C207.79754598 496.31748652 205.48661251 496.32413322 203.17568016 496.33113575 C196.8862014 496.3485569 190.59673025 496.35910073 184.30723333 496.36734128 C180.37854028 496.37248948 176.4498496 496.37856532 172.52115822 496.38485241 C161.64026655 496.40172398 150.75937781 496.41635832 139.87847519 496.42360115 C137.05507849 496.425511 134.23168181 496.42743133 131.40828514 496.42938709 C130.35569346 496.4301127 130.35569346 496.4301127 129.2818373 496.43085297 C117.91990413 496.43914935 106.55807637 496.46447937 95.19618921 496.49696777 C83.52640869 496.53006396 71.85668713 496.54771969 60.18685973 496.55124539 C53.63663927 496.55359678 47.08658539 496.56256896 40.53640938 496.58770657 C34.37223383 496.61098006 28.2083346 496.61522319 22.04412651 496.60494518 C19.78386453 496.60444953 17.52358898 496.61077857 15.26336861 496.62450123 C12.17253961 496.64221403 9.08270288 496.63511634 5.99187279 496.62196827 C4.65686999 496.63842214 4.65686999 496.63842214 3.29489744 496.65520841 C-5.55964707 496.56455658 -12.73442634 493.42949788 -19.02970314 487.13422108 C-24.8068193 479.6721127 -26.34684605 471.9452311 -26.25675392 462.6986742 C-26.25704597 461.8977132 -26.25733803 461.0967522 -26.25763893 460.27151966 C-26.25625769 457.65272237 -26.240754 455.03421799 -26.22501564 452.41547108 C-26.22128121 450.58844629 -26.21843627 448.76141949 -26.2164402 446.93439198 C-26.20883758 442.14714407 -26.18921834 437.36001928 -26.16703224 432.57281971 C-26.14650088 427.67924127 -26.13742295 422.78564276 -26.12735939 417.89203358 C-26.10596903 408.30604225 -26.07187415 398.72014194 -26.02970314 389.13422108 C-26.57377815 389.13790825 -27.11785316 389.14159542 -27.6784153 389.14539433 C-40.94168627 389.23388732 -54.20490523 389.29974378 -67.46840858 389.34146976 C-73.88266961 389.36232792 -80.29671725 389.39061391 -86.71085548 389.43597889 C-92.9029951 389.47949876 -99.09492969 389.50337152 -105.28721046 389.51373005 C-107.64747278 389.5211103 -110.0077241 389.5355222 -112.36789894 389.5571413 C-115.67858912 389.58625597 -118.98843641 389.59017358 -122.29923439 389.58832264 C-123.27100121 389.60270374 -124.24276802 389.61708485 -125.24398232 389.63190174 C-131.27577152 389.59550724 -136.05174498 388.71320866 -141.02970314 385.13422108 C-145.21975861 379.8697924 -146.15412536 376.05092768 -146.17014503 369.4359026 C-146.17311616 368.75153592 -146.17608728 368.06716924 -146.17914844 367.36206418 C-146.18783562 365.06369205 -146.1893437 362.76537201 -146.19083595 360.46698475 C-146.19546411 358.82112485 -146.20048877 357.17526603 -146.20588112 355.52940845 C-146.21900732 351.05411976 -146.22545051 346.57884607 -146.22989178 342.10354114 C-146.23282215 339.30790648 -146.23692689 336.51227593 -146.24139595 333.71664333 C-146.25507146 324.97077013 -146.26473786 316.22490631 -146.26859784 307.47902316 C-146.27307887 297.38129377 -146.29062862 287.28369973 -146.31959844 277.18601149 C-146.34121077 269.38209734 -146.35130188 261.57822127 -146.35263896 253.77427751 C-146.35368731 249.11273899 -146.35960149 244.45132769 -146.37745857 239.78982067 C-146.3939315 235.40428927 -146.39609857 231.01898083 -146.38731956 226.63342953 C-146.38654877 225.02499641 -146.3908975 223.41655134 -146.40077782 221.80814838 C-146.41348951 219.60966381 -146.40762541 217.41196983 -146.39719582 215.21349049 C-146.39866238 213.98402793 -146.40012894 212.75456537 -146.40163994 211.48784637 C-145.80985514 206.15192783 -143.71703615 202.22999067 -139.59220314 198.82172108 C-139.0159922 198.33058826 -138.43978127 197.83945545 -137.84610939 197.33343983 C-134.59343529 195.18597542 -131.34888843 195.00943531 -127.52451515 195.01396656 C-126.62711617 195.0125919 -125.72971718 195.01121723 -124.80512428 195.00980091 C-123.8283271 195.01339619 -122.85152992 195.01699146 -121.84513283 195.02069569 C-120.81067024 195.02054966 -119.77620766 195.02040363 -118.71039772 195.02025318 C-115.29076987 195.02094991 -111.87119648 195.02873114 -108.45157814 195.03656483 C-106.08074918 195.03842986 -103.70991983 195.03985336 -101.33909035 195.04085255 C-95.09853998 195.04467102 -88.85801287 195.05449562 -82.61747169 195.06555653 C-76.24967705 195.07578502 -69.88187864 195.08035325 -63.51407814 195.08539295 C-51.01927625 195.09611846 -38.52449163 195.11318688 -26.02970314 195.13422108 C-26.03246852 194.26730452 -26.0352339 193.40038795 -26.03808308 192.50720119 C-26.10440383 171.39035556 -26.15401337 150.27352794 -26.18513966 129.1566 C-26.20059309 118.94451241 -26.22165346 108.73249444 -26.2560215 98.52045155 C-26.28597053 89.61720334 -26.30528922 80.71400558 -26.31196862 71.8107084 C-26.31587156 67.09868491 -26.3250122 62.38680568 -26.34689331 57.67482853 C-26.36734546 53.23434669 -26.37351938 48.79406775 -26.36902618 44.35354328 C-26.36984749 42.72904957 -26.37576097 41.10454866 -26.38731956 39.48009586 C-26.46718923 27.66996128 -25.91073322 17.54173595 -18.06876564 8.11468983 C-13.20003277 3.38586307 -6.85536421 0.01724772 0 0 Z M-4.77189064 19.53656483 C-8.48366095 24.56665355 -9.15456274 27.69750216 -9.14995766 33.87291431 C-9.15081208 34.56151439 -9.15166651 35.25011446 -9.15254682 35.9595812 C-9.15419679 38.27197116 -9.14868814 40.58428894 -9.14322853 42.89667225 C-9.14294653 44.5522661 -9.14310465 46.20786008 -9.14367104 47.86345387 C-9.1439585 52.36314362 -9.13806992 56.86280684 -9.13109708 61.36249042 C-9.12485514 66.06303604 -9.12425907 70.76358223 -9.12307167 75.46413136 C-9.11996084 84.36761151 -9.11175078 93.27107941 -9.10172218 102.17455417 C-9.09055336 112.3098585 -9.08504865 122.4451634 -9.08002675 132.58047235 C-9.06956798 153.43172877 -9.05197331 174.28297415 -9.02970314 195.13422108 C-8.48562813 195.13568764 -7.94155312 195.1371542 -7.38099098 195.1386652 C5.88249439 195.17578268 19.14572207 195.2351133 32.4090023 195.31812382 C38.82316155 195.35760128 45.23718345 195.38978868 51.6514492 195.40521717 C57.84374946 195.42038161 64.03567212 195.45482438 70.22780418 195.5025301 C72.58800026 195.51734591 74.94825024 195.5252622 77.30849266 195.52610493 C80.6193454 195.52847561 83.92915553 195.5555655 87.23982811 195.58832264 C88.69747833 195.58077709 88.69747833 195.58077709 90.18457603 195.57307911 C96.2071807 195.66502499 100.98976334 196.58223233 105.97029686 200.13422108 C110.47737587 205.68139525 111.09335522 209.80222026 111.11073875 216.78748035 C111.11370988 217.45495611 111.116681 218.12243187 111.11974216 218.81013417 C111.12840968 221.04545452 111.12993575 223.2807212 111.13142967 225.51605701 C111.13605925 227.11941104 111.1410841 228.72276396 111.14647484 230.32611561 C111.15958797 234.68164848 111.16604176 239.03716593 111.1704855 243.39271545 C111.17341817 246.1151694 111.17752336 248.83761916 111.18198967 251.56007099 C111.19566217 260.08169178 111.20532986 268.60330296 111.20919156 277.12493396 C111.21367088 286.95492252 111.23121395 296.78477194 111.26019216 306.6147182 C111.28182486 314.21741162 111.2918967 321.82006594 111.29323268 329.42278981 C111.29427963 333.96141775 111.30016398 338.49991484 111.31805229 343.03851032 C111.33456031 347.3099751 111.33667527 351.58121106 111.32791328 355.85269642 C111.32714435 357.41675143 111.33146664 358.98081888 111.34137154 360.54484272 C111.44751527 378.35597527 111.44751527 378.35597527 106.55372047 383.67343235 C102.68928844 387.08603255 99.55664573 388.25140523 94.50943565 388.29243946 C93.14015671 388.30712269 93.14015671 388.30712269 91.74321556 388.32210255 C90.74412163 388.32785801 89.74502769 388.33361347 88.71565819 388.33954334 C87.66183449 388.34944294 86.60801079 388.35934254 85.52225304 388.36954212 C82.03230107 388.40117814 78.54233547 388.42592295 75.05232811 388.45062733 C72.63522547 388.47119503 70.21812645 388.49219145 67.80103111 388.51360035 C61.43391911 388.56883994 55.06677455 388.61824094 48.69960594 388.66644764 C42.20452025 388.71664885 35.70948194 388.77234212 29.21443748 388.82758045 C16.46643135 388.93518512 3.71838477 389.03681143 -9.02970314 389.13422108 C-9.09927079 399.46125787 -9.15254882 409.78823874 -9.18513966 420.1154623 C-9.20078311 424.9110248 -9.22199731 429.70642675 -9.2560215 434.50189686 C-9.28866199 439.13141294 -9.30656609 443.76077478 -9.31433487 448.39039707 C-9.31986995 450.15501171 -9.33067868 451.91961809 -9.34689331 453.68416691 C-9.36873009 456.15940185 -9.37166748 458.63400267 -9.37027931 461.10931873 C-9.38106514 461.83580616 -9.39185097 462.56229359 -9.40296364 463.31079578 C-9.37461806 467.9941496 -8.48190121 471.15112676 -6.02970314 475.13422108 C-0.36858284 480.64636453 5.42448142 480.28172691 12.87651634 480.26793385 C13.77423102 480.2701994 14.67194571 480.27246496 15.59686387 480.27479917 C18.60530643 480.28112988 21.61370384 480.2803104 24.62215233 480.27948475 C26.77899293 480.2824768 28.93583299 480.28587944 31.09267235 480.28966236 C36.9521664 480.2985015 42.81164585 480.30084043 48.67114592 480.30147815 C53.56186456 480.30242749 58.45257979 480.30610606 63.34329712 480.30965024 C74.88123759 480.31779436 86.41917025 480.3202345 97.95711327 480.31952381 C109.8614535 480.31892291 121.76574844 480.32947727 133.6700772 480.34526747 C143.88931329 480.35833979 154.10853456 480.36370784 164.32777894 480.3630684 C170.43183873 480.36281334 176.53585827 480.36566922 182.63990974 480.37624645 C188.38052932 480.38592229 194.12107009 480.3860101 199.86169243 480.37872982 C201.96798251 480.37768337 204.07427748 480.38005046 206.18055916 480.38609028 C209.05716893 480.39380445 211.93350621 480.3891691 214.81011009 480.38145924 C215.64231823 480.3866028 216.47452636 480.39174636 217.33195293 480.39704579 C222.67219108 480.36544693 228.37688989 480.22173924 232.71248436 476.73187733 C236.50307376 471.59497514 237.09504278 468.40223477 237.09055138 462.0918169 C237.0914058 461.37054841 237.09226023 460.64927992 237.09314054 459.90615481 C237.09479097 457.48320978 237.08928109 455.06033359 237.08382225 452.63739491 C237.08354026 450.90298432 237.08369835 449.16857361 237.08426476 447.43416309 C237.08455226 442.71960466 237.07866305 438.00507154 237.0716908 433.290519 C237.06544951 428.36575558 237.06485284 423.44099162 237.06366539 418.51622486 C237.06055437 409.18775337 237.05234405 399.85929356 237.0423159 390.53082722 C237.03114767 379.91185608 237.02564252 369.29288438 237.02062047 358.67390883 C237.01016126 336.82733972 236.99256623 314.98078113 236.97029686 293.13422108 C236.09511154 292.76503307 236.09511154 292.76503307 235.20224571 292.38838673 C232.49973103 291.24598077 229.79947243 290.09832995 227.09920311 288.95062733 C226.18191429 288.56378773 225.26462547 288.17694813 224.31954002 287.77838612 C210.48348011 281.88519309 197.17024195 274.96540713 184.97029686 266.13422108 C184.34526268 265.68288807 183.7202285 265.23155506 183.07625389 264.7665453 C174.62341947 258.63282705 166.61931887 252.25763217 158.97029686 245.13422108 C157.62023522 243.96280653 156.26622172 242.79592688 154.90779686 241.63422108 C146.73013465 234.47466139 139.7339609 226.62529572 132.97029686 218.13422108 C132.33607811 217.37883045 131.70185936 216.62343983 131.04842186 215.84515858 C109.12462626 189.48224733 94.77142633 158.09064748 85.97029686 125.13422108 C85.78837791 124.47534901 85.60645897 123.81647694 85.41902733 123.13763905 C82.89598732 111.87318511 84.49243353 99.55676627 90.40779686 89.75140858 C97.87347146 79.16307201 110.15333159 72.99003398 120.99910545 66.35150623 C122.3833243 65.49669881 123.7607109 64.63077605 125.13289452 63.75677967 C125.8384951 63.30770252 126.54409569 62.85862537 127.27107811 62.39593983 C127.90827782 61.98690418 128.54547752 61.57786854 129.20198631 61.15643787 C134.57883985 58.04821121 140.96841646 58.69866026 146.97029686 59.13422108 C150.59529686 60.57172108 150.59529686 60.57172108 152.97029686 62.13422108 C153.96029686 62.46422108 154.95029686 62.79422108 155.97029686 63.13422108 C156.95076561 64.69281483 156.95076561 64.69281483 157.97029686 67.13422108 C158.46142967 68.30082264 158.95256248 69.4674242 159.45857811 70.66937733 C164.15267873 82.2450951 168.55282148 93.92782097 172.90779686 105.63422108 C173.34679817 106.81167393 173.34679817 106.81167393 173.7946682 108.0129137 C174.63576347 110.27114317 175.47357355 112.53056072 176.31014061 114.79047108 C176.56397514 115.47201756 176.81780968 116.15356403 177.07933617 116.85576344 C180.00077353 124.78090991 181.17001599 130.76716835 177.98641014 138.94037342 C175.80738471 143.64501603 172.69107407 147.80253925 169.73396873 152.0424242 C169.25121483 152.75720936 168.76846092 153.47199451 168.27107811 154.20843983 C167.6084597 155.1610973 167.6084597 155.1610973 166.93245506 156.13300037 C165.70306416 158.6900461 165.62967363 160.32373799 165.97029686 163.13422108 C166.99578565 165.27201039 166.99578565 165.27201039 168.54060936 167.25140858 C169.10030418 168.01590321 169.65999901 168.78039783 170.23665428 169.56805897 C170.85000633 170.37364246 171.46335838 171.17922596 172.09529686 172.00922108 C173.03949486 173.26690296 173.03949486 173.26690296 174.00276756 174.54999256 C187.72781807 192.53095205 204.84253158 210.32090037 224.97029686 221.13422108 C228.90473881 221.13422108 232.33092038 219.39410911 235.47322655 217.10931873 C238.87441423 212.62210276 237.65023112 206.16859529 237.40779686 200.82172108 C237.36042381 198.85235584 237.36042381 198.85235584 237.31209373 196.84320545 C237.22965678 193.60461099 237.11462014 190.37055168 236.97029686 187.13422108 C236.27992332 187.11963856 235.58954979 187.10505604 234.87825584 187.09003162 C231.72090026 187.01511491 228.56455185 186.91859891 225.40779686 186.82172108 C223.77874413 186.78788319 223.77874413 186.78788319 222.11678123 186.7533617 C215.30359941 186.52556535 209.64046837 186.22012762 204.22810936 181.66937733 C200.07240318 176.2669593 199.81973891 172.29063769 199.80916405 165.63104725 C199.80419914 164.88092869 199.79923424 164.13081013 199.79411888 163.3579607 C199.77953678 160.88102767 199.77270175 158.4041587 199.76717186 155.92718983 C199.76141702 154.20089689 199.75565932 152.47460396 199.74989891 150.74831104 C199.73940007 147.12946749 199.73355014 143.51064607 199.73006248 139.89178944 C199.72458107 135.26496508 199.70055592 130.63843549 199.67209053 126.01170349 C199.65342496 122.44539516 199.64825646 118.87915727 199.64672661 115.31280422 C199.64370824 113.60763723 199.63570735 111.90247124 199.62254143 110.19735241 C199.60539907 107.80653589 199.60738086 105.41643231 199.61385155 103.0255785 C199.60463676 102.327672 199.59542198 101.62976551 199.58592796 100.91071033 C199.6284311 95.87255123 200.82444797 92.5845297 202.97029686 88.13422108 C203.30029686 87.14422108 203.63029686 86.15422108 203.97029686 85.13422108 C208.56098492 82.95968463 212.67802321 81.99739831 217.73201561 81.81781483 C218.85027733 81.7759203 219.96853905 81.73402576 221.12068748 81.6908617 C222.28793358 81.6515453 223.45517967 81.61222889 224.65779686 81.57172108 C225.83664452 81.52853748 227.01549217 81.48535389 228.23006248 81.4408617 C231.14335569 81.33470932 234.05673443 81.23265866 236.97029686 81.13422108 C237.04644375 73.55372022 237.09893766 65.97331824 237.13509178 58.39252186 C237.15016591 55.81435936 237.17062853 53.23622245 237.19661522 50.65814686 C237.23305772 46.94958646 237.25003738 43.24136554 237.26326561 39.53265858 C237.27874947 38.38244221 237.29423332 37.23222584 237.31018639 36.04715443 C237.31260584 28.1728265 237.31260584 28.1728265 233.97029686 21.13422108 C228.73187887 16.03365619 223.98903008 16.00648179 216.91951561 16.03656483 C215.93130569 16.03868725 215.93130569 16.03868725 214.92313194 16.04085255 C212.83463924 16.04641607 210.74625675 16.05896161 208.65779686 16.07172108 C207.23527237 16.0767408 205.8127462 16.08130288 204.39021873 16.08539295 C200.91687609 16.0963735 197.44359725 16.11361272 193.97029686 16.13422108 C193.71337059 16.93642078 193.45644432 17.73862049 193.19173241 18.56512928 C192.2317377 21.54753012 191.26358968 24.52712307 190.28987694 27.50507069 C189.87058447 28.79307106 189.45453324 30.08213136 189.04183006 31.37225819 C188.44715353 33.22928057 187.83973264 35.08220652 187.23201561 36.93500233 C186.87067528 38.05044422 186.50933495 39.16588612 186.13704491 40.31512928 C184.97088503 43.13279994 184.35506936 44.31962233 181.97029686 46.13422108 C179.48557091 46.5117445 179.48557091 46.5117445 176.46663475 46.515172 C175.32252129 46.52363148 174.17840782 46.53209095 172.99962425 46.54080677 C171.74342278 46.53473408 170.4872213 46.52866138 169.19295311 46.52240467 C167.85748935 46.52646948 166.52202895 46.53181085 165.18657494 46.53833485 C161.558484 46.5520253 157.93064865 46.54670282 154.30255318 46.53719759 C150.50828162 46.52960988 146.71403215 46.53664412 142.91975975 46.54135609 C136.54756803 46.54681625 130.17548057 46.53961525 123.80330467 46.52533436 C116.43293369 46.50900728 109.06281166 46.51429561 101.69244671 46.53081357 C95.36795385 46.54442108 89.043536 46.54635173 82.71903324 46.53849757 C78.94012623 46.53381697 75.16133628 46.53320672 71.38243675 46.54310703 C67.82995113 46.55176381 64.27778692 46.54577881 60.72533607 46.52842426 C58.79721839 46.52255557 56.86907356 46.53148599 54.94096947 46.54080677 C53.796856 46.5323473 52.65274254 46.52388783 51.47395897 46.515172 C50.47771004 46.51404093 49.48146111 46.51290985 48.45502281 46.5117445 C45.54859618 46.07014887 44.70285306 45.46374173 42.97029686 43.13422108 C41.80354881 40.31512928 41.80354881 40.31512928 40.70857811 36.93500233 C40.31219139 35.72650623 39.91580467 34.51801014 39.50740623 33.27289295 C39.0990065 31.99756527 38.69080589 30.72217381 38.28279686 29.44672108 C37.86370626 28.15934079 37.44379336 26.87222789 37.02303123 25.58539295 C35.99732666 22.43754098 34.9801227 19.28719564 33.97029686 16.13422108 C29.82602584 16.08445154 25.68191733 16.04832819 21.53743553 16.0243578 C20.1301781 16.01435551 18.72294116 16.00074929 17.31575584 15.98334217 C15.28258238 15.95883742 13.2496858 15.94768025 11.21639061 15.93890858 C9.38612328 15.92319813 9.38612328 15.92319813 7.51888084 15.9071703 C3.13390566 16.1877363 -1.2682929 16.71640431 -4.77189064 19.53656483 Z M51.97029686 16.13422108 C53.47360415 23.31795967 53.47360415 23.31795967 55.97029686 30.13422108 C94.25029686 30.13422108 132.53029686 30.13422108 171.97029686 30.13422108 C174.73768782 23.25875149 174.73768782 23.25875149 175.97029686 16.13422108 C135.05029686 16.13422108 94.13029686 16.13422108 51.97029686 16.13422108 Z M133.67732811 77.51312733 C132.88672997 78.01884266 132.09613182 78.52455799 131.28157616 79.04559803 C130.45697899 79.59046864 129.63238182 80.13533924 128.78279686 80.69672108 C127.93435204 81.24739246 127.08590721 81.79806385 126.21175194 82.36542225 C123.79021768 83.94363381 121.37979889 85.53772827 118.97029686 87.13422108 C117.89521873 87.83031483 116.82014061 88.52640858 115.71248436 89.24359608 C109.02561839 93.70150672 103.57996006 98.340027 100.97029686 106.13422108 C96.21520708 133.31818564 118.37762602 169.889105 133.37264061 191.50922108 C140.83630173 202.03018332 149.02666761 211.83820081 157.97029686 221.13422108 C158.57003319 221.76118885 159.16976952 222.38815662 159.78767967 223.03412342 C173.85220821 237.66137467 188.89731879 249.21823727 205.97029686 260.13422108 C206.99639061 260.79293201 208.02248436 261.45164295 209.07967186 262.13031483 C227.55693661 273.43067589 258.82382181 289.98071253 281.03670311 285.73968983 C291.72680743 282.49709458 297.44847439 271.80373105 302.84529686 262.82172108 C304.15517804 260.67978503 305.46507321 258.53785755 306.77498436 256.39593983 C307.34201073 255.45709949 307.90903709 254.51825916 308.49324608 253.55096912 C309.61213324 251.7202478 310.78015155 249.91943905 311.97029686 248.13422108 C312.36521584 245.59707793 312.36521584 245.59707793 310.97029686 243.13422108 C309.19212883 242.07604391 309.19212883 242.07604391 307.01424217 241.21722889 C306.19935326 240.87365345 305.38446434 240.53007801 304.54488182 240.17609119 C300.40165269 238.49943003 296.25162453 236.84764993 292.07967186 235.24359608 C290.71821037 234.71938068 290.71821037 234.71938068 289.32924461 234.18457508 C287.42725627 233.45382213 285.52472184 232.72448905 283.62166405 231.99652576 C280.71142165 230.88081856 277.80577066 229.75366171 274.89998436 228.62640858 C273.04348611 227.91475958 271.18672429 227.20379769 269.32967186 226.49359608 C268.46501305 226.15616383 267.60035423 225.81873158 266.70949364 225.4710741 C261.00652086 223.20696529 261.00652086 223.20696529 254.97029686 223.13422108 C252.90493273 224.05448141 252.90493273 224.05448141 251.00935936 225.43500233 C249.93041405 226.15913319 249.93041405 226.15913319 248.82967186 226.89789295 C248.09232811 227.40900623 247.35498436 227.92011951 246.59529686 228.44672108 C233.24696734 237.58537424 233.24696734 237.58537424 226.53279686 237.50922108 C225.85346092 237.51695545 225.17412498 237.52468983 224.47420311 237.53265858 C217.52896946 236.42748879 212.15895009 233.23215872 206.65779686 229.00922108 C205.67806908 228.26974232 205.67806908 228.26974232 204.67854881 227.51532459 C202.76779467 226.06508354 200.86893387 224.60026382 198.97029686 223.13422108 C198.05248436 222.44457264 197.13467186 221.7549242 196.18904686 221.04437733 C181.02877207 209.22965701 167.93734946 194.8653158 156.97029686 179.13422108 C156.56649803 178.57509022 156.1626992 178.01595936 155.74666405 177.43988514 C151.03674472 170.84599808 148.91375376 165.38499145 149.42732811 157.21625233 C150.55662155 150.80609027 153.63166974 145.95050453 157.41170311 140.75531483 C157.83266258 140.15646473 158.25362206 139.55761463 158.68733788 138.94061756 C159.52237633 137.76488977 160.38789096 136.61004017 161.28645897 135.48212147 C162.72741169 133.59630775 162.72741169 133.59630775 163.97029686 130.13422108 C163.6355369 127.88475105 163.6355369 127.88475105 162.79671288 125.54828358 C162.50781181 124.66455067 162.21891075 123.78081776 161.92125511 122.87030506 C160.4039105 118.50462206 158.85853367 114.15387992 157.24764061 109.82172108 C156.90149208 108.88618397 156.55534355 107.95064686 156.19870567 106.98676014 C155.47339831 105.02993908 154.74644607 103.07372696 154.01790428 101.1181078 C152.9012712 98.11668057 151.793991 95.11190658 150.68709373 92.10687733 C149.97867342 90.19911569 149.26970873 88.29155609 148.56014061 86.38422108 C148.22989388 85.48534168 147.89964714 84.58646229 147.55939293 83.66034412 C147.24889503 82.83187977 146.93839714 82.00341541 146.61849022 81.14984608 C146.34774178 80.42055897 146.07699333 79.69127186 145.79804039 78.93988514 C145.00794848 76.93979054 145.00794848 76.93979054 142.97029686 75.13422108 C139.07824882 74.6822387 136.92417988 75.40647062 133.67732811 77.51312733 Z M230.97029686 98.13422108 C235.05987587 102.23071311 235.05987587 102.23071311 239.23982811 106.22015858 C239.81410545 106.75455555 240.3883828 107.28895252 240.98006248 107.83954334 C241.57496483 108.39053699 242.16986717 108.94153065 242.78279686 109.50922108 C243.40734764 110.08792957 244.03189842 110.66663807 244.67537498 111.26288319 C248.32768668 114.63823108 251.98924884 117.99621362 255.76326561 121.23578358 C257.67661899 122.88160613 259.56906511 124.54714706 261.45857811 126.22015858 C262.73307104 127.33762745 264.0078126 128.45481282 265.28279686 129.57172108 C265.89445702 130.11707508 266.50611717 130.66242908 267.13631248 131.22430897 C270.54341712 134.38494651 270.54341712 134.38494651 274.97029686 135.13422108 C276.61483948 134.00798211 276.61483948 134.00798211 278.28279686 132.38422108 C281.45216542 129.49980492 284.65875473 126.67940124 287.92586327 123.9071703 C294.18976706 118.59094827 300.29905566 113.13907237 306.32576561 107.55609608 C308.58526704 105.48683332 310.876695 103.48179178 313.22029686 101.50922108 C314.12779686 100.72547108 315.03529686 99.94172108 315.97029686 99.13422108 C315.97029686 98.80422108 315.97029686 98.47422108 315.97029686 98.13422108 C287.92029686 98.13422108 259.87029686 98.13422108 230.97029686 98.13422108 Z M215.97029686 109.13422108 C215.97029686 125.96422108 215.97029686 142.79422108 215.97029686 160.13422108 C218.99589467 158.62142217 220.98485681 157.45920999 223.50935936 155.37640858 C224.49742577 154.56695789 224.49742577 154.56695789 225.50545311 153.74115467 C226.19510155 153.16961658 226.88474998 152.5980785 227.59529686 152.00922108 C229.02450521 150.831556 230.45419262 149.65447208 231.88435936 148.47797108 C232.92704979 147.61945545 232.92704979 147.61945545 233.99080467 146.74359608 C235.7226728 145.33554543 237.47131561 143.95933432 239.24373436 142.60297108 C240.14349998 141.91203358 241.04326561 141.22109608 241.97029686 140.50922108 C242.75404686 139.91883045 243.53779686 139.32843983 244.34529686 138.72015858 C245.14967186 137.93511951 245.14967186 137.93511951 245.97029686 137.13422108 C246.3099568 134.05933238 246.3099568 134.05933238 244.16951561 132.18890858 C243.34064842 131.4696117 242.51178123 130.75031483 241.65779686 130.00922108 C240.74642967 129.21515858 239.83506248 128.42109608 238.89607811 127.60297108 C235.16387016 124.4537649 231.39317834 121.35615938 227.59529686 118.28656483 C224.46621051 115.72090027 221.43857538 113.05567175 218.43123436 110.34906483 C217.15882243 109.02765855 217.15882243 109.02765855 215.97029686 109.13422108 Z M324.59529686 114.07172108 C319.70048014 118.61916846 314.66671344 122.92504337 309.46248436 127.11859608 C306.2395655 129.7252201 303.10248809 132.41965535 299.97029686 135.13422108 C303.50101643 138.74946984 307.16653153 142.12770828 311.03279686 145.38422108 C311.86955956 146.09058704 311.86955956 146.09058704 312.72322655 146.81122303 C321.30875722 155.11090786 321.30875722 155.11090786 330.97029686 160.13422108 C330.97029686 143.30422108 330.97029686 126.47422108 330.97029686 109.13422108 C328.68907258 109.13422108 326.25696617 112.51077457 324.59529686 114.07172108 Z M255.27498436 150.95062733 C254.56269676 151.54722157 253.85040916 152.1438158 253.11653709 152.75848866 C252.36702782 153.39810535 251.61751854 154.03772205 250.84529686 154.69672108 C249.31356379 155.98415447 247.78101878 157.2706225 246.24764061 158.55609608 C245.14331688 159.48518787 245.14331688 159.48518787 244.01668358 160.4330492 C240.86543483 163.0526986 237.61835856 165.5382277 234.34139061 167.99750233 C233.88892967 168.37261951 233.43646873 168.7477367 232.97029686 169.13422108 C232.97029686 169.46422108 232.97029686 169.79422108 232.97029686 170.13422108 C260.03029686 170.13422108 287.09029686 170.13422108 314.97029686 170.13422108 C311.32489434 166.48881856 307.8054799 163.32310836 303.72029686 160.25922108 C300.52035224 157.85200651 297.34929718 155.45670381 294.29842186 152.86078358 C293.53014061 152.20851795 292.76185936 151.55625233 291.97029686 150.88422108 C291.31029686 150.30156483 290.65029686 149.71890858 289.97029686 149.11859608 C287.93303272 147.8459016 287.93303272 147.8459016 285.39998436 148.79828358 C282.74299705 150.13524803 282.74299705 150.13524803 280.09529686 152.75922108 C276.97029686 155.13422108 276.97029686 155.13422108 273.59529686 155.88422108 C269.02274294 154.93817544 266.99886702 152.9230198 263.76717186 149.66547108 C260.32360704 146.73095497 258.26646574 148.41424023 255.27498436 150.95062733 Z M-129.02970314 212.13422108 C-129.02970314 264.93422108 -129.02970314 317.73422108 -129.02970314 372.13422108 C-55.10970314 372.13422108 18.81029686 372.13422108 94.97029686 372.13422108 C94.99092186 345.91984608 95.01154686 319.70547108 95.03279686 292.69672108 C95.04190086 284.40490711 95.05100487 276.11309315 95.06038475 267.57001209 C95.0637282 260.16808817 95.0637282 260.16808817 95.06574059 252.76616383 C95.06667611 249.45703435 95.07043888 246.14792075 95.07587242 242.83879566 C95.08269898 238.6259078 95.08479408 234.41304325 95.08336914 230.20015037 C95.08366738 228.64895684 95.08566944 227.09776255 95.08951199 225.54657376 C95.09444022 223.46126257 95.09330371 221.3760435 95.09055138 219.29073048 C95.09147317 218.11913159 95.09239496 216.94753271 95.09334469 215.74043083 C95.26666786 213.20626798 95.26666786 213.20626798 93.97029686 212.13422108 C91.10035038 212.0362821 88.25446631 212.00429817 85.38409996 212.01396656 C84.47261336 212.01311214 83.56112676 212.01225771 82.62201935 212.01137739 C79.54334952 212.0097198 76.46473322 212.01524852 73.38606834 212.02069569 C71.18890446 212.02097752 68.99174048 212.02081989 66.79457664 212.02025318 C60.80928137 212.01996507 54.82400595 212.02586395 48.83871531 212.03282714 C42.59132216 212.03905847 36.3439286 212.0396643 30.09653282 212.04085255 C19.60401144 212.04361223 9.11149623 212.04986773 -1.3810215 212.05878162 C-12.19026592 212.06795506 -22.99950835 212.07502477 -33.80875587 212.07928944 C-34.81770864 212.07969143 -34.81770864 212.07969143 -35.84704429 212.08010155 C-41.6976374 212.08241427 -47.54823056 212.08456713 -53.39882374 212.08670425 C-78.60912376 212.09612064 -103.81940439 212.11603912 -129.02970314 212.13422108 Z " fill="#ffffff" transform="translate(155.0297031402588,7.865778923034668)"/>
<path d="M0 0 C7.35364908 4.245542 12.03346548 8.77640619 16.171875 16.25390625 C16.51347656 16.8571875 16.85507813 17.46046875 17.20703125 18.08203125 C20.59011177 25.32025004 20.35159237 34.63788392 18.41015625 42.234375 C16.57758325 47.0222436 14.06314745 51.02025731 11.171875 55.25390625 C11.92210938 55.71539062 12.67234375 56.176875 13.4453125 56.65234375 C29.52025415 66.89657609 40.41165088 79.99926653 44.7890625 98.921875 C45.56899685 103.67310774 45.9954234 106.99113204 43.296875 111.12890625 C40.35930096 114.06648029 38.85369374 114.37929004 34.82695007 114.39434814 C33.45795059 114.40291336 33.45795059 114.40291336 32.06129456 114.41165161 C31.05710983 114.41276947 30.05292511 114.41388733 29.01831055 114.41503906 C27.43521088 114.42248642 27.43521088 114.42248642 25.82012939 114.43008423 C22.31627763 114.44473173 18.81247115 114.45151231 15.30859375 114.45703125 C12.87962339 114.46278074 10.45065306 114.46853849 8.02168274 114.4743042 C2.92306303 114.48482167 -2.17554088 114.4906594 -7.27416992 114.49414062 C-13.81140005 114.49962573 -20.34842194 114.52365118 -26.88558674 114.55211258 C-31.90498975 114.57072536 -36.92434248 114.57594385 -41.94377708 114.5774765 C-44.35394618 114.58050682 -46.76411432 114.58854803 -49.17424965 114.60166168 C-52.54512038 114.61869275 -55.9154808 114.61684883 -59.28637695 114.61035156 C-60.28448898 114.61956635 -61.28260101 114.62878113 -62.31095886 114.63827515 C-67.27856276 114.60824087 -70.8332449 114.5701235 -74.828125 111.25390625 C-77.41896766 107.51328135 -76.91954486 104.43116015 -76.359375 100.08984375 C-73.25979862 83.5435757 -64.39868256 69.77249366 -50.67578125 60.01171875 C-48.09285364 58.35625163 -45.49680702 56.76633146 -42.828125 55.25390625 C-43.23804688 54.61324219 -43.64796875 53.97257812 -44.0703125 53.3125 C-50.28399377 43.33790639 -52.75657726 34.03009616 -50.17578125 22.28515625 C-46.91201758 12.31176682 -41.4443079 5.61578664 -32.35546875 0.4453125 C-22.47617904 -4.2118488 -9.98269047 -4.80710095 0 0 Z M-29.578125 20.12890625 C-33.36702336 25.39126508 -34.62492373 29.7381489 -33.828125 36.25390625 C-31.66826406 42.60643842 -27.04190902 46.30872119 -21.453125 49.69140625 C-16.09866052 50.8387915 -10.88488846 50.06910296 -6.015625 47.56640625 C-1.7232986 44.45236553 0.50257975 41.261792 2.171875 36.25390625 C2.7354418 30.56404914 2.49983933 26.08482222 -0.828125 21.25390625 C-5.38991554 16.75547391 -8.54690745 14.11097539 -15.078125 14.00390625 C-21.57843783 14.08876673 -25.02222549 15.3659204 -29.578125 20.12890625 Z M-48.9296875 81.45703125 C-53.14551615 86.58778441 -54.98147987 90.8489547 -57.828125 97.25390625 C-30.108125 97.25390625 -2.388125 97.25390625 26.171875 97.25390625 C21.3772073 84.4681257 13.70143902 75.94579174 1.36328125 69.87109375 C-16.59230183 62.90325554 -35.73338263 67.62298674 -48.9296875 81.45703125 Z " fill="#ffffff" transform="translate(107.828125,244.74609375)"/>
<path d="M0 0 C0.99355499 -0.00428513 1.98710999 -0.00857025 3.01077271 -0.01298523 C5.10694621 -0.01871315 7.20313958 -0.01924016 9.29931641 -0.01489258 C12.49025739 -0.01173612 15.68026745 -0.03519942 18.87109375 -0.06054688 C20.91406134 -0.06282051 22.9570314 -0.06352307 25 -0.0625 C25.94608124 -0.07170975 26.89216248 -0.08091949 27.86691284 -0.09040833 C34.59283561 -0.04390988 40.51935113 0.70803815 45.875 5.16796875 C46.41382813 5.83054687 46.95265625 6.493125 47.5078125 7.17578125 C48.06210937 7.83320313 48.61640625 8.490625 49.1875 9.16796875 C53.42559941 15.42202897 53.49346904 21.96301879 52.6328125 29.30078125 C50.28271119 35.62487363 45.45779632 40.19373198 39.61450195 43.41259766 C35.08043553 44.76320223 30.63298157 44.6262321 25.92578125 44.63671875 C24.88641922 44.64337555 23.84705719 44.65003235 22.77619934 44.65689087 C20.57990281 44.66700223 18.38357564 44.67170836 16.18725586 44.67138672 C12.84241558 44.6757524 9.49890324 44.71206868 6.15429688 44.75 C4.01562949 44.75587009 1.87695587 44.7598382 -0.26171875 44.76171875 C-1.75116753 44.7832753 -1.75116753 44.7832753 -3.27070618 44.80526733 C-10.47481085 44.75832154 -15.91112881 43.3431804 -21.390625 38.51953125 C-21.83664063 37.95234375 -22.28265625 37.38515625 -22.7421875 36.80078125 C-23.20367187 36.23359375 -23.66515625 35.66640625 -24.140625 35.08203125 C-28.2512213 29.11250287 -28.03878963 23.39936068 -27.3671875 16.30078125 C-25.71513529 10.1773063 -21.7177267 5.62107632 -16.3671875 2.30078125 C-10.90919637 -0.03151417 -5.83069586 -0.00559307 0 0 Z M-10.3671875 19.30078125 C-10.78385417 22.30078125 -10.78385417 22.30078125 -10.3671875 25.30078125 C-7.99672219 27.67124656 -7.53314578 27.55261263 -4.31640625 27.55957031 C-3.06500854 27.56902679 -3.06500854 27.56902679 -1.78833008 27.57867432 C-0.88622803 27.57462585 0.01587402 27.57057739 0.9453125 27.56640625 C1.86997314 27.5683197 2.79463379 27.57023315 3.74731445 27.57220459 C5.70426709 27.57356691 7.66122874 27.56986721 9.61816406 27.56152344 C12.6206484 27.55082459 15.62253437 27.56141716 18.625 27.57421875 C20.52343883 27.57289716 22.42187728 27.57033479 24.3203125 27.56640625 C25.22241455 27.57045471 26.1245166 27.57450317 27.05395508 27.57867432 C27.88822021 27.57237 28.72248535 27.56606567 29.58203125 27.55957031 C30.31768311 27.55797913 31.05333496 27.55638794 31.8112793 27.55474854 C33.88295464 27.45243156 33.88295464 27.45243156 35.6328125 25.30078125 C36.04947917 22.30078125 36.04947917 22.30078125 35.6328125 19.30078125 C31.68345736 16.66787782 28.27775498 17.01333199 23.6953125 17.03515625 C22.81883057 17.0332428 21.94234863 17.03132935 21.03930664 17.02935791 C19.18668328 17.02799726 17.33405034 17.03168531 15.48144531 17.04003906 C12.64366261 17.05074033 9.80651298 17.04013977 6.96875 17.02734375 C5.16926943 17.02866537 3.36978926 17.0312278 1.5703125 17.03515625 C0.72025635 17.03110779 -0.1297998 17.02705933 -1.00561523 17.02288818 C-5.98237294 17.05665191 -5.98237294 17.05665191 -10.3671875 19.30078125 Z " fill="#ffffff" transform="translate(256.3671875,425.69921875)"/>
<path d="M0 0 C1.18480453 -0.00953201 2.36960907 -0.01906403 3.59031677 -0.02888489 C5.50446129 -0.02751778 5.50446129 -0.02751778 7.45727539 -0.02612305 C8.77151993 -0.03040817 10.08576447 -0.0346933 11.43983459 -0.03910828 C14.21969642 -0.04656151 16.99943123 -0.0462858 19.77929688 -0.04101562 C23.33471292 -0.03522223 26.8896078 -0.05215248 30.44493771 -0.0753603 C33.84490522 -0.09366895 37.24475886 -0.08991177 40.64477539 -0.08862305 C41.9188475 -0.09783279 43.19291962 -0.10704254 44.50559998 -0.11653137 C46.28753502 -0.10718819 46.28753502 -0.10718819 48.10546875 -0.09765625 C49.14819443 -0.09828568 50.1909201 -0.0989151 51.26524353 -0.0995636 C54.56281935 0.33309537 56.44902495 1.32013051 59.11743164 3.2746582 C60.68214397 6.40408286 60.81445122 9.88548044 60.11743164 13.2746582 C57.94305733 16.06348725 56.75976319 17.1615215 53.23364258 17.78259277 C51.55963379 17.78736633 51.55963379 17.78736633 49.85180664 17.79223633 C48.58369141 17.80484497 47.31557617 17.81745361 46.0090332 17.83044434 C44.62849369 17.8232845 43.24795925 17.81508051 41.86743164 17.8059082 C40.44783258 17.80860383 39.02823533 17.81248683 37.60864258 17.81750488 C34.6361327 17.82339678 31.66410423 17.81484775 28.69165039 17.79614258 C24.88484377 17.7733522 21.07916515 17.78647708 17.2723999 17.81043243 C14.34179208 17.82489934 11.4114509 17.82028055 8.48083496 17.80992126 C7.0774319 17.8072564 5.6740045 17.81051537 4.27062988 17.81983948 C2.30811029 17.83001761 0.34550562 17.81174861 -1.61694336 17.79223633 C-2.73294922 17.78905396 -3.84895508 17.78587158 -4.9987793 17.78259277 C-8.54503181 17.15797557 -9.70234467 16.08822601 -11.88256836 13.2746582 C-13.02952773 9.68085216 -13.19889136 8.00719568 -11.69506836 4.5246582 C-8.35296841 0.37584447 -5.17823579 0.02289804 0 0 Z " fill="#ffffff" transform="translate(176.882568359375,326.725341796875)"/>
<path d="M0 0 C1.26811523 -0.01260864 2.53623047 -0.02521729 3.84277344 -0.03820801 C5.22331295 -0.03104817 6.60384739 -0.02284418 7.984375 -0.01367188 C9.40397406 -0.0163675 10.82357131 -0.02025051 12.24316406 -0.02526855 C15.21567394 -0.03116045 18.18770241 -0.02261142 21.16015625 -0.00390625 C24.96696287 0.01888413 28.77264149 0.00575925 32.57940674 -0.01819611 C35.51001456 -0.03266301 38.44035574 -0.02804423 41.37097168 -0.01768494 C42.77437474 -0.01502007 44.17780215 -0.01827905 45.58117676 -0.02760315 C47.54369635 -0.03778128 49.50630102 -0.01951228 51.46875 0 C52.58475586 0.00318237 53.70076172 0.00636475 54.85058594 0.00964355 C58.37643133 0.63066636 59.55273304 1.73650375 61.734375 4.51757812 C62.46242451 7.2584704 62.30880741 9.74779018 61.734375 12.51757812 C59.52696819 15.48615969 58.24840127 16.34623603 54.734375 17.51757812 C52.84402462 17.62100073 50.95026444 17.66611691 49.05712891 17.67871094 C47.89226959 17.68831848 46.72741028 17.69792603 45.5272522 17.70782471 C43.63817642 17.71419952 43.63817642 17.71419952 41.7109375 17.72070312 C39.77074234 17.72925323 39.77074234 17.72925323 37.79135132 17.73797607 C35.05262866 17.74847485 32.31393526 17.75432488 29.57519531 17.7578125 C26.07246977 17.7632955 22.57013328 17.78732354 19.06752968 17.81578445 C15.71950644 17.8389307 12.3715366 17.84086163 9.0234375 17.84570312 C7.14043442 17.86422333 7.14043442 17.86422333 5.21939087 17.88311768 C4.04822723 17.88011658 2.8770636 17.87711548 1.67041016 17.87402344 C0.64243317 17.87766907 -0.38554382 17.8813147 -1.44467163 17.8850708 C-4.72449981 17.45779935 -6.59584925 16.43529659 -9.265625 14.51757812 C-11.19426339 11.97528206 -11.27464791 10.73412795 -11.140625 7.51757812 C-9.35173309 1.38423444 -6.11517042 0.01743786 0 0 Z " fill="#ffffff" transform="translate(175.265625,291.482421875)"/>
<path d="M0 0 C1.22492157 -0.0159874 2.44984314 -0.03197479 3.71188354 -0.04844666 C5.05026839 -0.05482345 6.38865824 -0.06021616 7.72705078 -0.06469727 C9.10084125 -0.07366543 10.47463072 -0.08278731 11.84841919 -0.09205627 C14.72839734 -0.10854376 17.60825928 -0.11624585 20.48828125 -0.11914062 C24.17290787 -0.12452305 27.85643739 -0.16219575 31.54075432 -0.20788479 C34.37871251 -0.23767687 37.21640725 -0.24486462 40.05450821 -0.24586678 C41.41247709 -0.25006528 42.77044702 -0.2624851 44.12826157 -0.28338432 C56.0804834 -0.4526996 56.0804834 -0.4526996 59.37988281 2.62255859 C61.60346628 6.20145362 61.7867277 8.16595576 61.04736328 12.30639648 C59.39915406 14.9479117 58.72004318 15.88852638 56.04736328 17.30639648 C51.42725114 18.0620499 46.84465358 17.98242148 42.17236328 17.93530273 C40.80143038 17.93613206 39.43049758 17.93859385 38.05957031 17.94261169 C35.19126326 17.94546521 32.32373902 17.9308144 29.45556641 17.90332031 C25.78671622 17.86923643 22.11926509 17.87525893 18.4503479 17.89398289 C15.62089463 17.90457303 12.79176456 17.89559717 9.96234131 17.88059807 C7.95439961 17.87292515 5.94641864 17.88025733 3.93847656 17.88783264 C2.71370605 17.87199631 1.48893555 17.85615997 0.22705078 17.83984375 C-0.84818848 17.83364517 -1.92342773 17.82744659 -3.03125 17.82106018 C-6.6696886 17.18007272 -8.34585724 15.88201319 -10.95263672 13.30639648 C-12.18937923 9.67346535 -12.29721875 8.06447696 -10.70263672 4.55639648 C-7.47844202 0.4110033 -5.01427702 0.04941361 0 0 Z " fill="#ffffff" transform="translate(175.95263671875,255.693603515625)"/>
</svg>
