<?xml version="1.0" standalone="no"?>
<!DOCTYPE svg PUBLIC "-//W3C//DTD SVG 20010904//EN"
 "http://www.w3.org/TR/2001/REC-SVG-20010904/DTD/svg10.dtd">
<svg version="1.0" xmlns="http://www.w3.org/2000/svg"
 width="1370.000000pt" height="963.000000pt" viewBox="0 0 1370.000000 963.000000"
 preserveAspectRatio="xMidYMid meet">

<g transform="translate(0.000000,963.000000) scale(0.100000,-0.100000)"
fill="#000000" stroke="none">
<path d="M6921 9096 c-52 -29 -50 -3 -51 -863 0 -601 3 -809 12 -828 13 -29
55 -55 88 -55 33 0 75 26 88 55 9 19 12 227 12 825 0 598 -3 806 -12 825 -22
48 -88 68 -137 41z"/>
<path d="M5293 8576 c-38 -17 -67 -68 -58 -103 6 -26 54 -102 490 -778 142
-220 284 -441 317 -492 65 -101 91 -119 151 -102 19 5 40 16 46 23 22 27 29
71 16 102 -7 16 -140 228 -295 469 -156 242 -339 528 -408 635 -68 107 -136
207 -151 222 -33 34 -67 41 -108 24z"/>
<path d="M8575 8580 c-33 -13 -55 -43 -222 -305 -88 -137 -276 -429 -417 -648
-267 -416 -275 -432 -245 -489 17 -32 74 -51 114 -38 28 9 50 37 148 188 621
964 746 1161 752 1184 9 37 -19 87 -60 104 -39 16 -42 16 -70 4z"/>
<path d="M3913 7146 c-360 -96 -605 -288 -1058 -831 -379 -454 -550 -642 -618
-677 -84 -43 -198 -60 -441 -65 -241 -6 -400 4 -661 38 -89 12 -168 18 -195
14 -84 -13 -152 -62 -194 -140 l-21 -40 -3 -1224 c-3 -1396 -9 -1285 83 -1378
81 -80 113 -87 377 -74 117 6 306 11 419 11 241 0 260 -4 368 -86 203 -152
297 -199 511 -254 338 -86 611 -119 1154 -140 385 -15 851 1 1471 50 333 26
387 35 448 68 118 63 236 206 284 344 21 59 26 91 25 168 0 52 -5 109 -10 126
l-10 32 62 1 c141 2 260 54 366 161 128 127 175 253 174 460 0 109 -4 135 -28
205 -15 44 -43 104 -62 132 l-34 53 36 15 c131 54 253 215 299 389 64 251 -11
559 -172 694 l-49 42 61 63 c102 107 169 256 181 406 11 138 -44 361 -115 464
-61 90 -178 156 -322 184 -81 15 -248 14 -374 -3 -39 -5 -40 -5 -65 43 -33 63
-137 168 -225 225 -115 75 -439 243 -605 314 -193 82 -446 168 -593 200 -74
16 -157 26 -242 30 -115 4 -140 2 -222 -20z m388 -196 c304 -62 703 -226 1087
-445 206 -118 282 -219 290 -385 7 -145 -38 -275 -197 -570 -123 -228 -179
-383 -257 -709 -47 -198 -44 -195 -180 -188 -80 4 -114 10 -156 29 -167 77
-252 288 -262 653 -9 345 51 583 178 708 30 29 95 77 145 107 117 70 193 128
188 143 -21 64 -247 37 -390 -46 -98 -57 -187 -175 -234 -308 -15 -43 -31 -79
-35 -79 -13 0 -89 120 -120 187 -16 36 -46 114 -68 174 -56 160 -81 190 -110
132 -19 -39 -25 -249 -10 -327 21 -111 98 -241 212 -362 l48 -51 2 -245 2
-244 -43 -80 c-207 -379 -453 -611 -983 -930 -168 -101 -222 -140 -212 -155 8
-13 91 -11 160 6 350 82 694 302 949 607 82 97 77 97 90 -7 6 -43 30 -132 49
-175 5 -12 -5 -21 -36 -35 -93 -41 -165 -135 -186 -245 -33 -167 -22 -304 31
-412 l33 -67 -29 -12 c-78 -32 -164 -164 -186 -283 -36 -194 22 -369 169 -516
91 -92 185 -156 349 -237 l124 -61 -54 -6 c-30 -3 -168 -11 -308 -16 -748 -29
-1365 15 -1819 131 -179 45 -257 82 -415 199 -128 93 -190 126 -272 141 -60
11 -424 8 -736 -7 l-137 -7 -26 26 -26 26 0 1195 c0 1073 2 1196 16 1210 20
20 31 20 216 -3 533 -68 978 -47 1180 55 86 44 231 195 558 584 314 373 390
459 497 559 198 186 349 281 533 335 110 32 241 34 381 6z m1923 -791 c71 -15
154 -64 179 -107 60 -103 92 -288 67 -393 -26 -114 -108 -233 -189 -274 -89
-44 -155 -55 -431 -70 -145 -8 -266 -13 -268 -11 -2 2 46 100 106 217 142 278
192 430 192 586 l0 52 38 4 c84 9 252 6 306 -4z m63 -1068 c93 -41 150 -124
178 -259 37 -174 4 -336 -93 -458 -47 -60 -100 -88 -203 -110 -73 -15 -78 -15
-439 32 -201 25 -529 67 -730 93 l-365 46 -21 65 c-12 36 -25 94 -29 129 l-7
64 66 -70 c87 -93 169 -137 297 -159 214 -37 360 8 417 128 10 24 34 104 52
178 18 74 44 178 59 230 l26 95 195 11 c107 6 274 11 370 10 160 -2 180 -4
227 -25z m-1137 -920 c712 -90 913 -121 957 -147 82 -48 133 -153 141 -290 10
-196 -65 -345 -211 -414 -149 -71 -228 -57 -992 185 -414 130 -517 171 -573
225 -59 57 -67 82 -67 215 1 104 4 126 23 167 55 113 197 125 722 59z m-510
-746 c47 -14 162 -51 255 -82 196 -63 476 -151 585 -183 122 -36 173 -87 186
-188 14 -110 -41 -239 -140 -330 -67 -61 -98 -72 -215 -72 -162 0 -366 60
-626 185 -209 100 -333 202 -392 323 -25 50 -28 68 -28 152 0 80 4 103 24 143
36 75 67 89 176 84 59 -3 119 -14 175 -32z"/>
<path d="M9715 7163 c-218 -27 -574 -143 -876 -285 -150 -71 -386 -199 -474
-256 -88 -57 -192 -162 -225 -225 -25 -48 -26 -48 -65 -43 -126 17 -293 18
-374 3 -144 -28 -261 -94 -322 -184 -61 -88 -119 -298 -119 -427 1 -146 78
-332 187 -445 37 -38 58 -68 51 -70 -7 -2 -38 -29 -69 -60 -64 -66 -110 -151
-140 -266 -29 -106 -31 -300 -6 -395 49 -183 161 -331 294 -391 l42 -19 -28
-43 c-70 -104 -108 -262 -98 -402 13 -174 66 -296 176 -406 106 -105 226 -158
367 -161 l62 -1 -10 -31 c-5 -17 -9 -74 -10 -126 0 -77 4 -109 25 -168 48
-138 166 -281 284 -344 60 -33 111 -41 448 -68 618 -49 1078 -65 1470 -50 539
20 805 53 1152 140 187 47 298 98 453 210 180 129 165 124 375 128 99 2 295
-1 435 -7 309 -14 333 -10 415 73 92 92 86 -18 83 1377 -3 1172 -4 1225 -22
1259 -25 48 -74 98 -116 120 -59 30 -115 33 -275 11 -263 -35 -421 -44 -662
-38 -241 6 -357 23 -440 65 -62 32 -238 223 -568 617 -325 388 -465 533 -640
665 -247 185 -532 274 -780 243z m301 -218 c181 -52 348 -156 538 -336 101
-96 180 -184 406 -454 377 -450 560 -644 647 -688 28 -15 85 -36 125 -46 141
-38 225 -46 488 -45 246 0 325 5 622 41 132 16 138 16 158 -2 20 -18 20 -27
20 -1212 l0 -1194 -26 -26 -26 -26 -127 7 c-295 15 -696 19 -753 7 -79 -17
-154 -57 -282 -151 -176 -130 -277 -170 -576 -230 -277 -56 -606 -86 -1050
-96 -242 -6 -764 7 -898 22 l-53 6 123 62 c163 81 257 145 348 236 147 148
205 322 169 516 -22 121 -108 250 -187 283 l-29 12 33 67 c54 106 64 242 32
412 -20 108 -84 194 -178 241 -25 12 -46 23 -48 24 -1 1 5 18 13 39 20 48 43
150 46 204 2 23 5 42 8 42 4 0 22 -22 41 -47 59 -79 207 -229 304 -307 182
-148 377 -251 611 -323 88 -27 235 -43 235 -25 0 18 -55 58 -198 143 -321 193
-531 348 -683 506 -127 132 -257 312 -335 465 l-27 53 1 243 2 244 61 66 c82
89 153 201 181 281 20 57 23 86 23 211 0 149 -12 210 -41 210 -21 0 -50 -53
-81 -145 -14 -44 -41 -115 -59 -158 -34 -79 -117 -217 -131 -217 -5 0 -21 36
-36 79 -81 229 -253 367 -483 387 -76 7 -144 -8 -144 -31 0 -19 41 -51 169
-130 144 -89 209 -152 255 -248 85 -176 115 -491 75 -787 -23 -168 -77 -304
-150 -379 -63 -66 -128 -91 -252 -98 -135 -8 -135 -8 -176 168 -74 313 -135
489 -237 679 -108 203 -173 347 -200 439 -54 189 -19 341 105 453 147 133 675
391 1016 497 277 86 449 102 611 56z m-2008 -781 l52 -7 0 -57 c0 -150 46
-291 187 -569 63 -123 112 -225 110 -227 -10 -10 -539 27 -591 41 -80 22 -144
56 -183 97 -43 45 -98 151 -113 217 -32 137 28 383 107 439 46 32 92 53 136
62 52 10 224 12 295 4z m172 -1055 c124 -6 235 -12 246 -15 23 -4 34 -38 108
-336 40 -162 59 -202 115 -245 77 -59 179 -75 334 -52 143 21 223 63 322 171
l58 62 -7 -63 c-9 -77 -43 -191 -59 -196 -7 -2 -194 -27 -417 -55 -223 -27
-544 -68 -715 -90 -327 -43 -349 -43 -464 -8 -178 55 -279 301 -226 550 34
160 107 248 232 277 54 13 213 13 473 0z m1169 -903 c83 -8 136 -38 163 -94
19 -41 22 -63 23 -167 0 -113 -2 -123 -27 -166 -31 -53 -88 -94 -181 -133 -34
-14 -263 -89 -508 -166 -583 -183 -723 -215 -831 -190 -201 48 -309 209 -296
444 6 98 24 155 70 223 54 81 74 87 448 137 703 95 978 126 1055 119 17 -1 54
-4 84 -7z m247 -765 c18 -11 42 -40 55 -68 20 -40 24 -63 24 -143 0 -85 -3
-102 -29 -155 -60 -124 -216 -244 -458 -352 -232 -104 -413 -153 -560 -153
-112 0 -148 12 -212 70 -157 144 -193 348 -82 455 38 37 57 45 191 84 83 24
236 72 340 106 272 89 474 153 520 164 73 17 177 13 211 -8z"/>
<path d="M6122 2162 c-24 -12 -62 -63 -144 -192 -61 -96 -252 -394 -424 -661
-172 -267 -316 -497 -319 -511 -15 -57 55 -126 114 -113 16 3 39 18 53 33 14
15 119 173 233 352 115 179 298 463 406 631 230 358 219 339 219 379 0 44 -16
69 -55 86 -43 18 -43 18 -83 -4z"/>
<path d="M7733 2165 c-17 -7 -37 -23 -43 -35 -30 -56 -22 -71 242 -481 140
-217 328 -509 418 -649 174 -272 199 -305 236 -314 60 -15 134 54 119 112 -6
24 -99 171 -686 1082 -200 310 -209 319 -286 285z"/>
<path d="M6924 1909 c-11 -6 -28 -23 -37 -39 -16 -26 -17 -99 -17 -829 0 -599
3 -807 12 -826 13 -29 55 -55 88 -55 33 0 75 26 88 55 9 19 12 227 12 825 0
598 -3 806 -12 825 -21 46 -85 67 -134 44z"/>
</g>
</svg>
