<?xml version="1.0" standalone="no"?>
<!DOCTYPE svg PUBLIC "-//W3C//DTD SVG 20010904//EN"
 "http://www.w3.org/TR/2001/REC-SVG-20010904/DTD/svg10.dtd">
<svg version="1.0" xmlns="http://www.w3.org/2000/svg"
 width="1377.000000pt" height="1309.000000pt" viewBox="0 0 1377.000000 1309.000000"
 preserveAspectRatio="xMidYMid meet">

<g transform="translate(0.000000,1309.000000) scale(0.100000,-0.100000)"
fill="#000000" stroke="none">
<path d="M6655 10749 c-22 -11 -50 -33 -62 -48 l-22 -26 -1 -628 c0 -688 -3
-656 58 -702 20 -15 43 -20 87 -20 74 0 106 21 135 88 20 46 21 59 18 645 -3
510 -5 601 -18 621 -49 79 -126 107 -195 70z"/>
<path d="M4114 10232 c-32 -28 -64 -87 -64 -117 0 -9 6 -31 14 -48 7 -18 21
-52 31 -77 10 -25 27 -65 37 -90 11 -25 23 -54 28 -65 25 -63 73 -183 81 -200
4 -11 24 -60 45 -110 20 -49 50 -118 65 -153 16 -34 29 -67 29 -72 0 -6 4 -18
9 -28 11 -20 41 -88 66 -152 70 -176 102 -210 199 -210 31 0 56 4 56 9 0 5 8
12 18 15 22 8 61 68 69 107 5 28 -4 54 -79 229 -11 25 -23 54 -28 65 -34 86
-47 118 -72 173 -15 35 -28 68 -28 74 0 5 -6 22 -14 36 -8 15 -22 47 -31 72
-23 59 -44 111 -83 200 -6 14 -27 66 -48 115 -64 156 -85 197 -117 226 -27 25
-39 29 -92 29 -51 0 -65 -5 -91 -28z"/>
<path d="M9130 10227 c-35 -32 -51 -59 -85 -147 -9 -25 -23 -58 -30 -75 -7
-16 -21 -50 -30 -75 -10 -25 -31 -73 -47 -108 -15 -34 -28 -67 -28 -72 0 -6
-4 -18 -10 -28 -5 -9 -26 -57 -46 -107 -45 -110 -72 -174 -85 -197 -5 -10 -9
-22 -9 -28 0 -5 -13 -38 -28 -72 -77 -169 -92 -211 -92 -262 0 -90 56 -146
148 -146 42 0 61 6 87 25 31 24 40 42 114 220 8 17 56 137 81 200 5 11 17 40
28 65 11 25 47 113 81 195 35 83 68 164 76 180 7 17 29 71 49 120 21 50 42
101 49 114 7 13 12 51 12 85 0 97 -49 146 -147 146 -46 0 -58 -5 -88 -33z"/>
<path d="M2029 8833 c-94 -31 -128 -142 -70 -226 17 -23 216 -228 444 -454
376 -374 418 -413 448 -414 88 -3 123 9 161 55 22 28 32 104 18 141 -12 33
-839 868 -880 889 -43 23 -73 25 -121 9z"/>
<path d="M11307 8836 c-49 -18 -14 15 -484 -455 -401 -401 -433 -438 -433
-501 0 -60 63 -137 115 -140 104 -7 64 -40 543 440 400 400 441 444 447 480
14 81 -15 137 -90 171 -47 22 -49 22 -98 5z"/>
<path d="M6127 7629 c-30 -12 -148 -129 -762 -756 -214 -219 -493 -503 -620
-632 -126 -129 -306 -313 -400 -408 -93 -96 -255 -261 -360 -367 -183 -186
-295 -300 -845 -861 l-255 -260 -18 -80 c-10 -44 -24 -111 -32 -150 -8 -38
-21 -101 -29 -140 -8 -38 -22 -108 -31 -155 -9 -47 -23 -112 -30 -145 -8 -33
-21 -98 -30 -145 -36 -178 -74 -363 -90 -430 -14 -60 -29 -146 -29 -170 0 -68
43 -120 129 -157 28 -12 82 -38 120 -57 67 -33 92 -33 64 0 -10 13 -10 17 2
26 11 7 9 9 -8 5 -12 -3 -27 1 -34 9 -6 8 -8 14 -3 14 4 0 -1 7 -12 16 -10 8
-13 13 -7 9 9 -4 11 -1 7 10 -5 13 -9 13 -22 3 -12 -10 -14 -10 -8 0 4 7 2 12
-4 12 -6 0 -8 5 -5 10 3 5 11 10 17 10 14 0 108 -103 102 -112 -3 -4 0 -8 6
-8 7 0 9 -7 6 -16 -5 -14 -4 -15 7 -5 12 9 21 3 48 -32 21 -28 52 -53 84 -67
27 -12 118 -55 200 -95 220 -107 426 -206 540 -260 55 -26 163 -78 240 -115
193 -94 391 -189 510 -245 55 -26 159 -76 231 -111 97 -47 141 -64 172 -64 34
0 42 4 42 18 0 34 28 59 74 66 39 6 52 15 98 68 29 34 62 71 73 84 29 32 61
68 139 159 38 44 79 90 92 102 13 12 24 25 24 28 0 3 11 16 24 28 13 12 54 58
92 102 38 44 80 93 94 109 14 16 36 40 50 55 14 14 52 57 85 96 33 38 71 82
85 96 14 15 36 39 50 55 14 16 56 65 94 109 38 44 79 90 92 102 13 12 24 25
24 28 0 3 11 16 24 28 13 12 55 60 95 106 40 46 78 90 86 98 8 8 21 23 29 35
16 22 1 25 166 -27 25 -7 62 -16 84 -20 21 -3 46 -10 55 -15 9 -4 41 -15 71
-24 30 -9 102 -29 160 -46 124 -36 190 -55 365 -105 33 -10 80 -23 105 -30 25
-7 72 -21 105 -30 89 -26 144 -41 205 -59 30 -9 80 -23 110 -31 30 -9 75 -22
100 -29 25 -8 72 -21 105 -31 175 -50 241 -69 365 -105 150 -43 197 -57 265
-76 33 -9 80 -22 105 -30 57 -17 127 -37 210 -59 36 -10 82 -24 103 -31 44
-17 83 -18 92 -4 4 6 3 10 -2 9 -20 -3 -27 2 -13 11 12 8 13 10 1 10 -23 0
-50 30 -44 48 5 11 2 14 -9 9 -21 -8 -30 3 -17 20 12 14 31 18 26 5 -4 -13 76
-87 91 -84 8 2 11 -1 8 -6 -11 -18 49 -70 95 -82 24 -7 89 -25 144 -41 55 -16
123 -36 150 -44 28 -8 77 -22 110 -31 33 -9 78 -22 100 -29 22 -7 69 -20 105
-30 36 -9 80 -23 98 -31 18 -8 40 -14 49 -14 18 0 106 -25 166 -46 52 -19 101
-17 145 5 33 17 88 91 167 228 10 18 33 54 110 173 23 36 45 72 49 80 8 17 20
38 59 97 15 24 27 47 27 53 0 5 4 10 9 10 5 0 14 14 21 30 7 17 16 30 21 30 5
0 9 5 9 11 0 5 20 41 45 79 25 38 45 74 45 79 0 6 4 11 9 11 5 0 14 14 21 30
7 17 16 30 21 30 5 0 9 5 9 11 0 5 19 40 43 77 23 37 47 76 54 87 7 11 37 61
68 110 31 50 62 99 68 110 7 11 36 57 65 103 29 46 58 94 64 108 6 13 14 24
18 24 4 0 11 8 14 18 7 18 12 27 59 99 15 24 27 47 27 53 0 5 4 10 9 10 5 0
14 13 21 30 7 17 16 30 21 30 5 0 9 4 9 10 0 5 14 32 30 58 22 36 30 62 30 94
0 55 -25 92 -142 209 -46 46 -205 210 -353 364 -447 463 -387 414 -550 450
-44 10 -100 24 -124 31 -25 8 -55 14 -68 14 -14 0 -32 4 -42 10 -10 5 -43 13
-72 18 -30 5 -76 15 -104 22 -27 6 -75 18 -105 25 -59 15 -159 38 -255 60 -83
18 -190 43 -255 60 -30 7 -91 21 -135 30 -86 19 -177 40 -239 56 -21 6 -60 15
-85 19 -46 9 -120 26 -236 54 -33 8 -103 24 -155 36 -52 12 -108 25 -124 29
l-30 7 69 79 c38 44 76 87 84 96 9 9 25 27 37 40 11 13 43 51 72 83 60 69 78
117 62 174 -5 22 -18 47 -27 58 -19 20 -24 24 -178 129 -55 38 -101 72 -103
77 -2 4 -8 8 -13 8 -11 0 -72 42 -77 53 -2 4 -10 7 -17 7 -7 0 -15 4 -17 8 -1
5 -68 53 -147 106 -190 129 -205 140 -209 149 -2 4 -10 7 -17 7 -7 0 -15 3
-17 8 -4 8 -65 52 -73 52 -3 0 -15 9 -27 19 -18 17 -136 78 -223 115 -43 19
-90 40 -165 74 -36 17 -92 42 -125 57 -124 56 -142 64 -205 93 -36 17 -92 42
-125 57 -33 15 -78 35 -100 45 -37 17 -90 41 -205 92 -25 11 -57 26 -72 34
-14 8 -33 14 -42 14 -9 0 -16 5 -16 10 0 6 -5 10 -10 10 -6 0 -41 14 -78 31
-37 17 -86 39 -109 50 -24 10 -62 28 -85 38 -24 11 -74 34 -113 51 -78 36
-127 45 -168 29z m182 -365 c101 -47 144 -67 216 -99 33 -15 87 -39 120 -55
85 -40 196 -90 200 -90 2 0 47 -20 99 -45 53 -25 98 -45 100 -45 5 0 114 -49
211 -95 39 -18 95 -44 126 -58 31 -14 88 -39 127 -58 l71 -33 -171 -175 c-317
-324 -921 -940 -1108 -1129 -102 -103 -365 -372 -585 -597 -220 -225 -476
-487 -570 -582 -93 -94 -238 -241 -321 -325 -183 -186 -178 -182 -201 -169
-39 21 -153 71 -176 76 -17 5 -26 2 -30 -9 -4 -9 -12 -16 -18 -16 -8 0 -8 4 1
15 11 13 10 14 -2 10 -8 -3 -33 13 -61 39 -47 46 -117 72 -125 47 -2 -6 -8 -8
-14 -5 -11 7 -96 -15 -104 -27 -3 -5 -2 -15 3 -21 4 -7 6 -26 4 -42 -2 -18 1
-26 8 -22 7 5 8 1 5 -9 -4 -10 -2 -15 7 -13 9 2 13 -4 11 -16 -2 -12 1 -15 8
-11 9 5 10 1 5 -14 -5 -16 -3 -20 9 -15 9 3 16 2 16 -4 0 -20 73 7 104 39 17
18 25 29 17 24 -9 -5 -12 -3 -9 6 9 26 33 21 36 -6 1 -15 -2 -24 -8 -20 -6 3
-7 -1 -4 -9 6 -15 -11 -22 -39 -17 -5 1 -6 -3 -2 -9 3 -6 11 -8 16 -5 22 14 7
-4 -17 -20 -20 -13 -28 -14 -40 -4 -12 10 -15 10 -12 0 3 -15 -26 -23 -49 -14
-12 5 -12 7 -1 14 10 7 9 9 -5 9 -10 0 -21 8 -24 18 -4 9 -17 25 -30 35 -12
10 -20 24 -17 32 4 8 -1 18 -10 21 -18 7 -22 54 -5 54 5 0 8 4 4 9 -8 13 47
62 63 56 7 -3 10 0 7 5 -3 6 1 10 9 10 30 0 16 15 -36 38 -29 13 -82 37 -118
54 -67 30 -113 51 -165 74 -16 7 -74 33 -127 58 -54 25 -100 46 -103 46 -5 0
-36 14 -200 91 -33 16 -72 33 -87 38 -16 6 -28 15 -28 20 0 5 55 65 123 133
67 68 293 299 502 513 472 483 700 715 975 993 118 120 391 398 605 617 556
570 712 725 725 725 7 0 47 -16 89 -36z m1571 -739 c7 -8 18 -15 25 -15 8 0
15 -4 17 -9 2 -5 46 -38 99 -74 134 -89 163 -111 167 -119 2 -5 10 -8 17 -8 7
0 15 -3 17 -7 5 -11 66 -53 77 -53 5 0 11 -3 13 -7 3 -8 18 -19 133 -97 39
-27 72 -50 74 -52 3 -2 -4 -13 -15 -23 -10 -10 -28 -29 -39 -42 -69 -81 -199
-225 -207 -227 -4 -2 -8 -8 -8 -13 0 -6 -10 -20 -23 -32 -13 -12 -54 -58 -92
-102 -79 -92 -110 -126 -146 -163 -14 -15 -56 -63 -94 -107 -76 -88 -107 -123
-145 -163 -14 -15 -52 -59 -85 -97 -33 -39 -71 -82 -85 -96 -14 -15 -36 -39
-50 -55 -14 -16 -56 -65 -94 -109 -38 -44 -79 -90 -92 -102 -13 -12 -24 -25
-24 -28 0 -3 -11 -16 -24 -28 -20 -19 -57 -61 -186 -211 -14 -16 -32 -36 -40
-45 -9 -9 -47 -52 -85 -96 -39 -44 -81 -92 -95 -106 -14 -15 -36 -39 -50 -55
-14 -16 -56 -65 -94 -109 -38 -44 -79 -90 -92 -102 -13 -12 -24 -25 -24 -28 0
-3 -10 -16 -23 -28 -20 -19 -129 -142 -192 -216 -11 -13 -27 -31 -35 -40 -9
-9 -47 -52 -85 -96 -39 -44 -81 -92 -95 -106 -14 -15 -36 -39 -50 -55 -14 -16
-54 -63 -90 -104 -36 -41 -76 -88 -90 -104 -14 -16 -36 -40 -51 -55 -14 -14
-56 -62 -94 -106 -76 -88 -107 -123 -145 -163 -14 -15 -52 -59 -85 -97 -33
-39 -70 -80 -82 -92 -13 -12 -23 -25 -23 -28 0 -3 -11 -16 -24 -28 -13 -12
-54 -58 -92 -102 -38 -44 -80 -93 -94 -109 -14 -16 -36 -40 -50 -55 -14 -14
-54 -59 -90 -100 l-64 -74 -13 69 c-7 38 -17 96 -22 129 -5 33 -15 87 -21 120
-24 123 -39 203 -55 295 -9 52 -22 129 -30 170 -8 41 -21 116 -30 165 -9 50
-23 124 -30 165 -8 41 -17 98 -20 125 l-6 50 325 330 c478 484 589 597 1041
1060 226 230 507 517 625 636 529 535 996 1012 1003 1025 10 18 21 18 37 -1z
m527 -1120 c21 -4 58 -12 83 -20 43 -12 110 -27 263 -61 39 -9 90 -20 112 -26
64 -17 156 -38 208 -48 26 -5 62 -13 80 -19 17 -5 68 -17 112 -26 44 -10 103
-23 130 -31 28 -7 84 -20 125 -29 41 -9 103 -23 137 -31 35 -8 92 -21 128 -29
36 -9 94 -22 130 -30 36 -9 95 -22 132 -31 74 -17 150 -35 228 -55 28 -7 67
-14 88 -17 20 -2 40 -8 43 -14 3 -5 -15 -40 -40 -78 -25 -37 -46 -73 -46 -78
0 -6 -3 -12 -7 -14 -11 -5 -53 -66 -53 -77 0 -5 -3 -11 -7 -13 -12 -5 -53 -66
-53 -78 0 -5 -4 -10 -9 -10 -5 0 -14 -13 -21 -30 -7 -16 -16 -30 -21 -30 -5 0
-9 -5 -9 -10 0 -12 -41 -73 -52 -78 -5 -2 -8 -8 -8 -14 0 -5 -74 -122 -165
-258 -91 -137 -165 -251 -165 -254 0 -3 -7 -14 -16 -25 -15 -17 -21 -18 -58
-6 -22 7 -77 20 -121 29 -44 10 -105 24 -135 31 -65 16 -155 37 -260 60 -76
17 -144 33 -235 55 -27 7 -68 16 -90 20 -72 14 -255 57 -302 71 -18 6 -54 14
-80 18 -27 5 -70 14 -98 21 -27 6 -75 18 -105 25 -30 8 -73 18 -95 24 -22 5
-56 13 -75 16 -19 3 -60 12 -90 20 -30 7 -86 21 -125 30 -38 9 -95 22 -125 29
-30 8 -89 21 -130 30 -121 27 -160 38 -160 46 0 8 77 98 117 137 13 12 23 25
23 28 0 3 10 16 23 28 13 12 54 58 92 102 37 44 81 92 97 107 15 15 28 30 28
33 0 3 10 16 23 28 12 12 53 58 92 102 38 44 76 87 85 96 18 20 43 48 135 154
38 44 80 90 92 102 13 12 23 25 23 28 0 13 66 65 77 61 6 -3 29 -8 50 -11z
m2825 -1174 c63 -65 66 -72 55 -93 -33 -59 -53 -88 -59 -88 -5 0 -8 -4 -8 -10
0 -5 -13 -32 -30 -58 -16 -27 -30 -54 -30 -61 0 -14 51 -36 95 -41 6 0 -1 -7
-15 -14 -19 -11 -29 -12 -45 -3 -11 6 -26 10 -34 8 -8 -1 -10 2 -6 9 10 16
-28 -4 -42 -22 -15 -19 -22 -68 -10 -75 6 -4 7 -1 2 7 -6 9 -4 11 4 5 10 -6 9
-11 -3 -24 -13 -12 -18 -13 -25 -3 -6 10 -11 8 -23 -5 -18 -21 -71 -102 -81
-123 -4 -8 -15 -27 -25 -42 -9 -15 -37 -60 -62 -100 -24 -40 -48 -74 -52 -76
-5 -2 -8 -8 -8 -13 0 -5 -12 -28 -27 -52 -38 -59 -51 -80 -59 -97 -4 -8 -10
-17 -14 -20 -3 -3 -26 -38 -50 -78 -25 -40 -53 -85 -62 -100 -9 -15 -23 -37
-30 -49 -14 -24 -93 -151 -120 -192 -9 -14 -27 -45 -39 -69 -13 -23 -30 -49
-39 -57 -16 -14 -18 -13 -30 17 -13 36 -29 75 -53 128 -8 19 -30 72 -49 117
-18 46 -38 83 -44 83 -6 0 -18 8 -25 17 -12 15 -12 16 1 8 9 -5 12 -5 7 1 -5
5 -14 9 -20 9 -6 0 -34 28 -64 62 -36 43 -50 68 -46 79 4 12 3 15 -5 10 -8 -5
-12 0 -12 14 0 12 4 18 10 15 6 -3 7 1 4 10 -4 10 3 26 17 41 21 23 22 27 10
62 -7 20 -18 51 -26 67 -7 17 -21 50 -31 75 -9 25 -30 73 -46 108 -28 62 -28
64 -11 95 10 18 20 34 23 37 10 10 60 88 81 128 7 12 16 22 21 22 4 0 8 5 8
11 0 5 74 122 165 259 91 137 165 253 165 259 0 5 3 11 8 13 11 5 52 66 52 78
0 5 4 10 8 10 5 0 14 10 21 23 6 12 20 36 31 52 11 17 25 40 31 53 7 12 16 22
21 22 4 0 8 4 8 9 0 6 14 31 32 57 l32 47 240 -246 c133 -135 271 -277 308
-316z m-3923 -105 c31 -8 88 -22 126 -31 39 -9 95 -22 125 -30 30 -7 91 -21
135 -30 44 -9 103 -22 130 -30 28 -7 86 -20 130 -30 44 -9 95 -21 112 -26 18
-6 54 -14 80 -19 51 -10 142 -31 208 -48 83 -21 141 -35 180 -42 22 -4 63 -13
90 -20 149 -36 230 -55 365 -85 41 -9 100 -23 130 -30 69 -17 162 -38 265 -60
44 -10 100 -24 124 -31 25 -8 53 -14 63 -14 31 0 118 -31 118 -42 0 -6 7 -26
16 -46 24 -55 31 -72 54 -132 12 -30 26 -64 31 -75 4 -11 21 -51 37 -90 25
-62 32 -70 55 -70 16 -1 27 4 27 13 0 7 5 10 10 7 6 -3 10 -13 10 -22 0 -11
-7 -14 -27 -9 -16 3 -22 3 -15 0 6 -3 9 -11 6 -16 -5 -7 -2 -8 7 -3 12 7 12 6
1 -8 -11 -13 -11 -22 3 -51 10 -20 22 -36 27 -36 12 0 72 41 76 52 6 14 22 9
22 -7 0 -9 -9 -15 -22 -15 -13 0 -18 -4 -12 -8 7 -4 1 -17 -17 -35 -26 -27
-34 -20 -14 13 6 11 2 10 -12 -3 -11 -9 -20 -24 -20 -32 0 -8 2 -13 5 -10 2 2
19 -3 36 -12 35 -19 78 -23 88 -9 4 6 12 5 21 -2 12 -10 16 -9 20 2 4 10 1 13
-9 9 -10 -4 -14 3 -14 23 0 24 4 29 25 29 14 0 25 -5 25 -12 0 -7 -6 -10 -14
-7 -8 3 -17 1 -21 -5 -3 -6 0 -9 8 -5 26 10 28 -14 3 -42 -18 -22 -33 -28 -65
-29 -22 -1 -41 3 -41 8 0 4 -4 6 -9 2 -5 -3 -17 5 -25 17 l-16 22 0 -25 c0
-13 9 -42 20 -64 11 -22 20 -45 20 -52 0 -7 13 -41 29 -75 34 -75 61 -145 61
-158 0 -14 -27 -12 -75 4 -22 8 -69 22 -105 31 -36 10 -81 23 -100 30 -19 7
-52 15 -73 19 -36 7 -38 6 -28 -13 14 -26 14 -31 -4 -31 -8 0 -15 -7 -15 -15
0 -8 -5 -15 -11 -15 -5 0 -7 -5 -4 -10 4 -6 1 -9 -7 -8 -7 2 -12 -3 -10 -11 2
-8 -3 -11 -12 -8 -8 3 -17 -1 -20 -9 -12 -30 -107 -4 -106 29 0 7 7 3 15 -7 8
-11 15 -14 15 -8 0 7 0 15 0 20 0 4 -9 7 -20 7 -10 0 -25 6 -32 13 -10 10 -10
15 2 23 13 9 12 10 -2 5 -12 -3 -29 8 -53 36 -37 44 -41 53 -26 62 5 4 21 -8
36 -25 18 -22 23 -34 15 -39 -8 -5 -9 -10 -2 -14 6 -3 13 -2 16 3 5 7 106 -84
106 -95 0 -2 -7 -4 -17 -4 -9 0 -14 -2 -11 -5 3 -4 18 -3 33 1 20 5 23 9 13
15 -10 7 -9 9 5 9 22 0 69 35 60 44 -3 3 0 6 7 6 8 0 3 11 -13 28 -15 16 -24
31 -20 35 3 4 -1 7 -10 7 -9 0 -31 6 -49 14 -35 14 -58 21 -303 91 -33 10 -80
23 -105 30 -25 7 -72 21 -105 30 -33 10 -80 23 -105 30 -25 7 -70 20 -100 29
-71 20 -157 44 -195 55 -16 5 -64 19 -105 30 -41 12 -95 28 -120 35 -25 7 -72
21 -105 30 -67 20 -124 36 -205 60 -30 9 -102 29 -160 46 -58 17 -127 37 -155
45 -81 23 -143 41 -265 74 -63 18 -135 38 -160 45 -25 8 -72 21 -105 31 -187
53 -257 73 -310 90 -22 7 -69 20 -105 30 -36 9 -83 23 -105 31 -23 8 -48 14
-58 14 -17 0 -24 26 -8 32 4 2 41 41 81 88 40 47 83 95 96 107 13 12 24 25 24
28 0 3 11 16 24 28 13 12 55 60 95 106 40 46 77 89 84 96 7 7 32 35 57 64 50
57 61 59 149 37z m-4113 -102 c33 -14 79 -35 104 -46 25 -11 74 -33 110 -50
36 -16 83 -38 105 -48 40 -18 83 -37 230 -105 114 -52 117 -53 153 -60 17 -4
32 -10 32 -15 0 -12 101 -52 117 -46 9 4 28 -6 46 -24 17 -16 35 -30 39 -30 5
0 39 -14 76 -31 37 -18 94 -44 127 -59 198 -91 215 -101 219 -123 4 -20 12
-67 52 -297 8 -47 19 -103 24 -125 5 -22 12 -65 15 -95 4 -30 11 -68 16 -85 5
-16 13 -59 19 -95 5 -36 14 -90 20 -120 6 -30 17 -93 26 -140 8 -47 21 -119
29 -160 23 -122 25 -140 15 -140 -6 0 -76 32 -158 71 -152 74 -301 145 -532
256 -74 36 -191 92 -260 125 -69 33 -181 87 -250 120 -69 33 -160 78 -203 99
-69 34 -84 38 -130 33 -52 -5 -52 -5 -111 50 -73 70 -94 76 -139 42 -19 -14
-38 -26 -43 -26 -5 0 -2 5 6 10 13 8 12 10 -2 10 -10 0 -18 -5 -18 -12 0 -6
-6 -3 -14 8 -15 19 -15 19 -13 -3 1 -14 7 -20 18 -18 22 4 55 -19 62 -45 8
-30 -14 -36 -35 -11 -10 14 -24 21 -33 17 -9 -3 -15 0 -15 10 0 8 -4 13 -9 10
-5 -4 -7 3 -4 14 4 14 -3 30 -17 45 -13 14 -19 25 -14 25 5 0 2 5 -6 10 -10 6
-12 12 -4 20 7 7 18 2 35 -16 13 -15 18 -24 12 -20 -23 13 -13 -1 12 -18 24
-16 26 -15 46 8 12 14 26 23 31 20 5 -4 4 3 -4 15 -7 12 -20 21 -30 21 -27 0
-31 18 -19 79 7 31 18 88 26 126 8 39 21 102 29 140 8 39 22 106 31 150 26
126 45 217 56 260 5 22 14 68 19 101 5 34 14 74 20 88 5 15 10 42 10 60 0 27
6 46 15 46 2 0 29 -12 61 -26z m924 -188 c0 -3 -4 -8 -10 -11 -5 -3 -10 -1
-10 4 0 6 5 11 10 11 6 0 10 -2 10 -4z m5824 -668 c-5 -9 -2 -9 9 1 14 11 21
11 42 -3 14 -9 25 -21 25 -26 0 -6 3 -9 8 -7 4 1 7 -1 7 -5 0 -4 9 -14 20 -22
20 -15 20 -15 0 -33 -11 -10 -16 -14 -12 -9 4 5 -2 16 -14 24 -11 8 -18 20
-15 27 5 14 -47 38 -59 27 -3 -4 -10 0 -15 8 -13 20 -12 30 1 30 5 0 7 -6 3
-12z m-6938 -344 c-3 -8 0 -11 8 -8 19 7 42 -24 28 -38 -16 -16 -66 30 -52 47
5 7 6 16 2 20 -4 5 -1 5 6 1 7 -5 11 -14 8 -22z m109 -75 c-3 -16 -1 -17 16
-9 22 12 26 25 5 17 -10 -4 -13 -1 -9 9 7 18 17 18 32 0 13 -15 -7 -38 -38
-43 -23 -4 -71 17 -71 32 0 18 8 22 39 17 23 -3 29 -9 26 -23z m6243 -105 c18
-5 21 -11 16 -28 -6 -18 -5 -19 9 -8 13 11 17 10 28 -10 7 -13 19 -28 27 -34
8 -6 12 -16 8 -22 -4 -7 -2 -10 6 -7 8 3 28 -10 46 -28 l33 -34 -25 -16 c-23
-16 -25 -15 -34 11 -5 15 -34 53 -64 85 -29 31 -52 57 -50 57 3 0 -1 7 -8 15
-7 8 -17 15 -23 15 -7 0 -7 -4 1 -12 16 -16 15 -28 -3 -28 -8 0 -32 -9 -52
-20 -37 -20 -65 -17 -41 3 7 7 22 21 32 32 10 11 16 14 12 8 -5 -8 -1 -13 10
-13 10 0 14 3 11 7 -9 8 12 33 27 33 6 0 21 -3 34 -6z"/>
<path d="M4236 3658 c3 -5 10 -6 15 -3 13 9 11 12 -6 12 -8 0 -12 -4 -9 -9z"/>
<path d="M4175 3650 c-3 -5 -1 -10 4 -10 6 0 11 5 11 10 0 6 -2 10 -4 10 -3 0
-8 -4 -11 -10z"/>
<path d="M10100 3265 c0 -8 -3 -15 -7 -15 -5 0 -8 -14 -9 -31 -1 -17 2 -26 6
-19 5 8 10 7 19 -4 9 -11 9 -16 0 -22 -8 -5 -9 -3 -4 6 6 9 4 11 -4 6 -9 -6
-8 -13 5 -27 9 -10 22 -19 27 -19 6 0 2 7 -9 15 -10 8 -14 15 -8 15 6 0 21
-11 34 -25 25 -26 45 -25 31 3 -9 18 -35 84 -45 115 -7 21 -36 23 -36 2z"/>
<path d="M2934 2873 c10 -11 37 -12 30 -2 -3 5 -12 9 -21 9 -9 0 -13 -3 -9 -7z"/>
<path d="M10025 3100 c3 -5 8 -10 11 -10 2 0 4 5 4 10 0 6 -5 10 -11 10 -5 0
-7 -4 -4 -10z"/>
<path d="M9264 2602 c3 -5 0 -13 -6 -15 -9 -4 -10 -6 -1 -6 17 -1 25 16 12 25
-7 4 -9 3 -5 -4z"/>
<path d="M9455 2520 c-3 -5 -1 -10 4 -10 6 0 11 5 11 10 0 6 -2 10 -4 10 -3 0
-8 -4 -11 -10z"/>
<path d="M9488 2473 c7 -3 16 -2 19 1 4 3 -2 6 -13 5 -11 0 -14 -3 -6 -6z"/>
<path d="M2874 2773 c2 -10 6 -17 10 -16 15 3 16 11 2 22 -12 10 -14 9 -12 -6z"/>
<path d="M9172 2584 c10 -10 20 -16 22 -13 3 3 -5 11 -17 18 -21 13 -21 12 -5
-5z"/>
</g>
</svg>
